# xmcd
#
# Track frame offsets:
#	150
#	22952
#	35737
#	50354
#	65047
#	83154
#	98067
#	114617
#	132403
#	151241
#	170842
#	184900
#	223741
#	245371
#
# Disc length: 3669 seconds
#
# Revision: 1
# Processed by: cddbd v1.5.1PL0 Copyright (c) Steve Scherf et al.
# Submitted via: EasyCDDAExtractor 7.0.5.4
#
DISCID=c60e530e
DTITLE=Exile - Live At Billy Bob's, Texas
DYEAR=2005
DGENRE=Country
TTITLE0=I Can't Get Close Enough
TTITLE1=Give Me One More Change
TTITLE2=It'll Be Me
TTITLE3=Woke Up In Love
TTITLE4=She's Too Good To Be True
TTITLE5=Keep It In The Middle of The Road
TTITLE6=Crazy For Your Love
TTITLE7=I Don't Want To Be a Memory
TTITLE8=She's a Miracle
TTITLE9=Hang On To Your Heart
TTITLE10=I Could Get Used To You
TTITLE11=Medley: Take Me Down/It Ain't Easy Being Easy
TTITLE12=Kiss You All Over
TTITLE13=Super Love
EXTD=
EXTT0=
EXTT1=
EXTT2=
EXTT3=
EXTT4=
EXTT5=
EXTT6=
EXTT7=
EXTT8=
EXTT9=
EXTT10=
EXTT11=
EXTT12=
EXTT13=
PLAYORDER=
